<svg width="70" height="53" viewBox="0 0 70 53" fill="none" xmlns="http://www.w3.org/2000/svg">
<g clip-path="url(#clip0)">
<path d="M53 18.7C52.9 18.7 52.9 18.7 52.8 18.7C52.1 8.3 43.3 0 32.8 0C21.7 0 12.7 9 12.7 20.1C12.7 22.6 13.2 25 14.1 27.3C13.6 27.2 13.1 27.2 12.6 27.2C5.7 27.2 0 32.8 0 39.8C0 46.8 5.7 52.4 12.6 52.4H54V52.3C62.8 51.7 69.8 44.4 69.8 35.5C69.8 26.2 62.3 18.7 53 18.7ZM53 50.5H12.6C6.7 50.5 1.9 45.7 1.9 39.8C1.9 33.9 6.7 29.1 12.6 29.1C13.5 29.1 14.5 29.2 15.4 29.5C15.5 29.5 15.5 29.5 15.6 29.5C16 29.5 16.3 29.3 16.5 28.9C16.5 28.9 16.5 28.9 16.5 28.8C16.5 28.7 16.5 28.7 16.5 28.6C16.5 28.5 16.5 28.5 16.5 28.4C16.5 28.3 16.5 28.3 16.5 28.2V28.1C15.3 25.6 14.6 22.9 14.6 20.1C14.6 10.1 22.8 1.9 32.8 1.9C42.3 1.9 50.3 9.4 50.9 18.8C49.1 19 47.3 19.5 45.7 20.3C45.2 20.5 45 21.1 45.3 21.5C45.5 22 46.1 22.2 46.5 21.9C48.5 20.9 50.7 20.4 53 20.4C61.3 20.4 68 27.1 68 35.4C68 43.8 61.2 50.5 53 50.5Z" fill="#4829B2"/>
<path d="M42.4 38.2002H27.4C26.9 38.2002 26.5 38.6002 26.5 39.1002C26.5 39.6002 26.9 40.0002 27.4 40.0002H35.8V42.8002C35.8 44.9002 37.5 46.6002 39.6 46.6002C41.7 46.6002 43.4 44.9002 43.4 42.8002V39.0002C43.3 38.6002 42.9 38.2002 42.4 38.2002ZM39.6 44.8002C38.6 44.8002 37.7 44.0002 37.7 42.9002V40.1002H41.5V42.9002C41.5 43.9002 40.6 44.8002 39.6 44.8002Z" fill="#4829B2"/>
<path d="M26.7 34.1999C26.9 34.3999 27.1 34.4999 27.4 34.4999C27.7 34.4999 27.9 34.3999 28.1 34.1999C28.5 33.7999 28.5 33.1999 28.1 32.8999L26.9 31.6999L28.1 30.4999C28.5 30.0999 28.5 29.4999 28.1 29.1999C27.7 28.8999 27.1 28.7999 26.8 29.1999L25.6 30.3999L24.4 29.1999C24 28.7999 23.4 28.7999 23.1 29.1999C22.8 29.5999 22.7 30.1999 23.1 30.4999L24.3 31.6999L23 32.8999C22.6 33.2999 22.6 33.8999 23 34.1999C23.2 34.3999 23.4 34.4999 23.7 34.4999C24 34.4999 24.2 34.3999 24.4 34.1999L25.6 32.9999L26.7 34.1999Z" fill="#4829B2"/>
<path d="M46.8 29.0998C46.4 28.6998 45.8 28.6998 45.5 29.0998L44.3 30.2998L43.1 29.0998C42.7 28.6998 42.1 28.6998 41.8 29.0998C41.5 29.4998 41.4 30.0998 41.8 30.3998L43 31.5998L41.8 32.7998C41.4 33.1998 41.4 33.7998 41.8 34.0998C42 34.2998 42.2 34.3998 42.5 34.3998C42.8 34.3998 43 34.2998 43.2 34.0998L44.4 32.8998L45.6 34.0998C45.8 34.2998 46 34.3998 46.3 34.3998C46.6 34.3998 46.8 34.2998 47 34.0998C47.4 33.6998 47.4 33.0998 47 32.7998L45.8 31.5998L47 30.3998C47.2 30.0998 47.2 29.4998 46.8 29.0998Z" fill="#4829B2"/>
</g>
<defs>
<clipPath id="clip0">
<rect width="69.8" height="52.4" fill="white"/>
</clipPath>
</defs>
</svg>
