<svg width="64" height="58" viewBox="0 0 64 58" fill="none" xmlns="http://www.w3.org/2000/svg">
<path d="M22.3632 4.03888C22.4129 4.03888 22.5123 4.03888 22.5619 3.98866C23.009 3.68734 23.4064 3.38603 23.8534 3.13494C24.0025 3.0345 24.0521 2.83362 23.9528 2.68297C23.8534 2.53231 23.6548 2.48209 23.5057 2.58253C23.0587 2.83362 22.6116 3.13494 22.1646 3.43625C22.0155 3.53669 21.9659 3.73756 22.1149 3.88822C22.1646 3.98866 22.2639 4.03888 22.3632 4.03888Z" fill="#4829B2"/>
<path d="M43.8222 3.03522C44.3189 3.28632 44.766 3.58763 45.213 3.98938C45.5608 4.29069 45.8588 4.59201 46.1568 4.94354C46.2065 4.99376 46.3058 5.04398 46.4052 5.04398C46.4549 5.04398 46.5542 4.99376 46.6039 4.94354C46.7529 4.8431 46.7529 4.64223 46.6536 4.49157C46.3555 4.14004 46.0078 3.78851 45.6104 3.48719C45.1137 3.08544 44.617 2.73391 44.0706 2.48281C43.9215 2.38237 43.7228 2.48281 43.6732 2.63347C43.6235 2.78413 43.6732 2.985 43.8222 3.03522Z" fill="#4829B2"/>
<path d="M33.8379 5.79675C33.7386 5.94741 33.7883 6.14828 33.9373 6.24872C33.987 6.29894 34.0366 6.29894 34.0863 6.29894C34.1857 6.29894 34.285 6.24872 34.3843 6.14828C34.8314 5.34478 35.5268 4.59149 36.421 3.93865C36.57 3.83821 36.6196 3.63733 36.5203 3.48668C36.421 3.33602 36.2223 3.2858 36.0732 3.38624C35.0798 4.0893 34.285 4.94303 33.8379 5.79675Z" fill="#4829B2"/>
<path d="M48.6404 12.0742C48.4914 12.0742 48.2927 12.1747 48.2927 12.3755C48.1934 13.3297 47.9947 14.3843 47.7463 15.4389C47.6966 15.5895 47.796 15.7904 47.945 15.8406C47.9947 15.8406 47.9947 15.8406 48.0444 15.8406C48.1934 15.8406 48.2927 15.7402 48.3424 15.5895C48.6404 14.4847 48.8391 13.4301 48.9385 12.4258C48.9385 12.2751 48.8391 12.1244 48.6404 12.0742Z" fill="#4829B2"/>
<path d="M38.6563 5.09365C38.706 5.19408 38.8053 5.2443 38.9046 5.2443C38.9543 5.2443 39.004 5.2443 39.0537 5.19408C39.2027 5.09365 39.2524 4.89277 39.153 4.74211C38.6066 3.83817 37.8615 3.03467 36.9177 2.3316C36.7687 2.23116 36.57 2.28138 36.4707 2.38182C36.3713 2.53248 36.421 2.73335 36.5203 2.83379C37.4641 3.53686 38.1595 4.29014 38.6563 5.09365Z" fill="#4829B2"/>
<path d="M38.4574 2.83431C38.5071 2.83431 38.5071 2.83431 38.5568 2.83431C39.3516 2.58322 40.196 2.43256 40.9908 2.43256C41.1895 2.43256 41.3385 2.43256 41.5372 2.43256C41.7359 2.43256 41.8849 2.33212 41.8849 2.13124C41.8849 1.98059 41.7855 1.77971 41.5869 1.77971C41.3882 1.77971 41.1895 1.72949 40.9908 1.72949C40.1463 1.72949 39.2522 1.88015 38.3581 2.18146C38.2091 2.23168 38.1097 2.43256 38.1594 2.58322C38.2091 2.73387 38.3084 2.83431 38.4574 2.83431Z" fill="#4829B2"/>
<path d="M38.1098 9.76407C37.9608 9.86451 37.9111 10.0654 38.0104 10.216C38.0601 10.3165 38.1594 10.3667 38.2588 10.3667C38.3085 10.3667 38.3581 10.3667 38.4078 10.3165C39.4013 9.71385 39.9477 8.65925 39.9477 7.454V7.35356C39.9477 7.2029 39.7987 7.05225 39.6496 7.05225C39.5006 7.05225 39.3516 7.2029 39.3516 7.35356V7.454C39.3516 8.40816 38.9045 9.26188 38.1098 9.76407Z" fill="#4829B2"/>
<path d="M34.1359 8.65922C34.0863 8.55879 34.0366 8.40813 33.9869 8.30769C33.9373 8.15703 33.7882 8.05659 33.5895 8.10681C33.4405 8.15703 33.3412 8.30769 33.3909 8.50857C33.4405 8.65922 33.4902 8.80988 33.5895 8.96054C34.0863 9.9147 34.881 10.5675 35.8248 10.7684H35.8745C36.0235 10.7684 36.1725 10.668 36.1725 10.5173C36.2222 10.3667 36.1229 10.1658 35.9242 10.1156C35.1294 9.96492 34.4837 9.46273 34.1359 8.65922Z" fill="#4829B2"/>
<path d="M48.2928 9.91487C48.2928 10.0655 48.4418 10.2162 48.5908 10.2162C48.5908 10.2162 48.5908 10.2162 48.6405 10.2162C48.7895 10.2162 48.9385 10.0655 48.9385 9.86465C48.8392 8.70961 48.5412 7.65501 48.0941 6.70085C48.0444 6.55019 47.8457 6.44976 47.6967 6.5502C47.5477 6.60041 47.4483 6.80129 47.5477 6.95195C47.9451 7.85589 48.1934 8.86027 48.2928 9.91487Z" fill="#4829B2"/>
<path d="M31.4535 1.17677C32.4967 1.22699 33.4902 1.47809 34.4339 1.7794C34.4836 1.7794 34.4836 1.7794 34.5333 1.7794C34.6823 1.7794 34.7817 1.67896 34.8313 1.57852C34.881 1.42787 34.8313 1.22699 34.6326 1.17677C33.6392 0.825239 32.596 0.574145 31.4535 0.523926C31.3045 0.523926 31.1058 0.624364 31.1058 0.82524C31.1555 0.975896 31.3045 1.12655 31.4535 1.17677Z" fill="#4829B2"/>
<path d="M25.9397 2.08102C25.9894 2.08102 26.0391 2.08102 26.0391 2.08102C27.0326 1.67927 28.026 1.42817 29.0195 1.27752C29.1685 1.2273 29.3175 1.07664 29.2679 0.925984C29.2182 0.775328 29.0692 0.624671 28.9201 0.67489C27.877 0.825547 26.8339 1.12686 25.8404 1.52861C25.6914 1.57883 25.592 1.77971 25.6417 1.93036C25.6914 1.98058 25.8404 2.08102 25.9397 2.08102Z" fill="#4829B2"/>
<path d="M58.9725 54.409C58.9228 54.9112 58.5254 55.3129 58.0287 55.3129H5.97119C5.52413 55.3129 5.2261 55.0116 5.17642 54.5596L2.59342 27.3912C2.54374 26.889 2.9908 26.3868 3.48753 26.3868H3.78557L60.3633 26.437C61.0588 26.437 61.6052 27.0899 61.5555 27.6925L58.9725 54.409ZM43.1764 25.1815C43.1764 25.1815 43.7228 24.2776 44.4679 23.0221C44.5673 22.8715 44.766 22.8212 44.915 22.9217C45.064 23.0221 45.1137 23.223 45.0143 23.3737C44.2692 24.6793 43.7228 25.5331 43.7228 25.5833C43.6732 25.6837 43.5738 25.7339 43.4745 25.7339C43.4248 25.7339 43.3751 25.7339 43.3254 25.6837C43.1267 25.5331 43.0771 25.3322 43.1764 25.1815ZM61.3568 24.2776H60.562V19.9588C60.562 18.9544 59.7673 18.1509 58.7738 18.1509H47.5477C47.2993 18.8037 47.0013 19.5068 46.6039 20.2601C46.5542 20.3605 46.4549 20.461 46.3058 20.461C46.2562 20.461 46.2065 20.461 46.1568 20.4107C46.0078 20.3103 45.9581 20.1596 46.0078 20.009C46.3058 19.3561 46.6039 18.7535 46.8026 18.1509H19.979L18.3895 15.5897C18.0915 15.0875 17.5947 14.8364 16.9986 14.8364H4.08361C3.38819 14.8364 2.79211 15.4391 2.79211 16.1421V18.2011V18.9544V24.4282H2.29538C1.10322 24.8802 0.258775 26.0855 0.407795 27.4916L3.09015 55.1623C3.23917 56.6688 4.481 57.8239 5.97119 57.8239H57.83C59.3202 57.8239 60.6117 56.6688 60.7111 55.1623L63.3934 27.4916C63.7908 25.9348 62.7973 24.5789 61.3568 24.2776Z" fill="#4829B2"/>
<path d="M18.3398 6.04826C18.4889 6.34957 18.8366 6.45001 19.0849 6.34957L21.1712 5.34519C21.4692 5.19454 21.5686 4.843 21.4692 4.59191C21.3202 4.29059 20.9725 4.19016 20.7241 4.29059L18.6379 5.29497C18.3398 5.39541 18.1908 5.74695 18.3398 6.04826Z" fill="#4829B2"/>
<path d="M17.0484 4.0894L18.4889 4.69203L20.3268 3.83831L20.4758 2.38196C20.4262 1.72911 20.1281 1.4278 19.7307 1.37758C19.2837 1.27714 17.9922 1.72911 18.4889 2.58284C17.7935 1.77933 17.0981 2.28152 16.8 2.53262C16.4523 2.83393 16.4523 3.68765 17.0484 4.0894Z" fill="#4829B2"/>
<path d="M22.8601 7.95595C23.0588 7.60442 23.0091 7.20267 22.562 6.7507L21.3202 5.89697L19.4823 6.7507L18.9856 8.20705C18.8862 8.91011 19.5816 9.51274 19.979 9.4123C20.3764 9.31186 21.2208 9.16121 21.0718 8.10661C21.4692 9.01055 22.6117 8.3577 22.8601 7.95595Z" fill="#4829B2"/>
</svg>
